# xmcd
#
# Track frame offsets:
#	150
#	20172
#	36574
#	54114
#	71560
#	90153
#	105007
#	124726
#	142343
#	158880
#	176697
#	192972
#	214608
#
# Disc length: 3155 seconds
# Revision: 0
# Processed by: cddbd v1.5.2PL0 Copyright (c) Steve Scherf et al.
# Submitted via: dBpowerAMP V12.0
#
DISCID=b00c510d
DTITLE=Various Artist - Daylight
DYEAR=2012
DGENRE=Country
TTITLE0=John Driskell Hopkins and Balsam Range w/ Jerry Douglas - Runaway Train
TTITLE1=John Driskell Hopkins and Balsam Range w/ Zac Brown - I Will Lay Me Down
TTITLE2=John Driskell Hopkins and Balsam Range w/ Tony Trischka - Daylight
TTITLE3=John Driskell Hopkins and Balsam Range - Nothing
TTITLE4=John Driskell Hopkins and Balsam Range w/ Joey and Rory - Bye Baby Goodbye
TTITLE5=John Driskell Hopkins and Balsam Range - She Don't Love Me Today
TTITLE6=John Driskell Hopkins and Balsam Range - Be My Girl
TTITLE7=John Driskell Hopkins and Balsam Range - The Devil Lives In a Mason Jar
TTITLE8=John Driskell Hopkins and Balsam Range w/ Levi Lowery - How Could I?
TTITLE9=John Driskell Hopkins and Balsam Range - It's Not Ok
TTITLE10=John Driskell Hopkins and Balsam Range - The Grass Don't Get No Greener
TTITLE11=John Driskell Hopkins and Balsam Range - DJ
TTITLE12=John Driskell Hopkins and Balsam Range - Shady Bald Breakdown
EXTD=
EXTT0=
EXTT1=
EXTT2=
EXTT3=
EXTT4=
EXTT5=
EXTT6=
EXTT7=
EXTT8=
EXTT9=
EXTT10=
EXTT11=
EXTT12=
PLAYORDER=
